<mxfile host="app.diagrams.net" agent="Mozilla/5.0 (Windows NT 10.0; Win64; x64) AppleWebKit/537.36 (KHTML, like Gecko) Chrome/130.0.0.0 Safari/537.36" version="24.8.3" pages="3">
  <diagram name="int main1" id="Ml1eDHRP4N1iMofSCAlX">
    <mxGraphModel dx="951" dy="1074" grid="0" gridSize="10" guides="1" tooltips="1" connect="1" arrows="1" fold="1" page="0" pageScale="1" pageWidth="827" pageHeight="1169" math="0" shadow="0">
      <root>
        <mxCell id="0" />
        <mxCell id="1" parent="0" />
        <mxCell id="LgxNM3hIKTOUP9IM-5CU-5" value="" style="edgeStyle=none;curved=1;rounded=0;orthogonalLoop=1;jettySize=auto;html=1;fontSize=12;startSize=8;endSize=8;" edge="1" parent="1" source="LgxNM3hIKTOUP9IM-5CU-2" target="LgxNM3hIKTOUP9IM-5CU-4">
          <mxGeometry relative="1" as="geometry" />
        </mxCell>
        <mxCell id="LgxNM3hIKTOUP9IM-5CU-2" value="START" style="ellipse;whiteSpace=wrap;html=1;" vertex="1" parent="1">
          <mxGeometry x="148" y="-51" width="120" height="80" as="geometry" />
        </mxCell>
        <mxCell id="LgxNM3hIKTOUP9IM-5CU-9" value="" style="edgeStyle=none;curved=1;rounded=0;orthogonalLoop=1;jettySize=auto;html=1;fontSize=12;startSize=8;endSize=8;" edge="1" parent="1" source="LgxNM3hIKTOUP9IM-5CU-4" target="LgxNM3hIKTOUP9IM-5CU-8">
          <mxGeometry relative="1" as="geometry" />
        </mxCell>
        <mxCell id="LgxNM3hIKTOUP9IM-5CU-4" value="enum WeatherCondition" style="whiteSpace=wrap;html=1;" vertex="1" parent="1">
          <mxGeometry x="148" y="72" width="120" height="60" as="geometry" />
        </mxCell>
        <mxCell id="LgxNM3hIKTOUP9IM-5CU-11" value="" style="edgeStyle=none;curved=1;rounded=0;orthogonalLoop=1;jettySize=auto;html=1;fontSize=12;startSize=8;endSize=8;" edge="1" parent="1" source="LgxNM3hIKTOUP9IM-5CU-8" target="LgxNM3hIKTOUP9IM-5CU-10">
          <mxGeometry relative="1" as="geometry" />
        </mxCell>
        <mxCell id="LgxNM3hIKTOUP9IM-5CU-8" value="&quot;Enter the current weather condition&quot;" style="shape=parallelogram;perimeter=parallelogramPerimeter;whiteSpace=wrap;html=1;fixedSize=1;" vertex="1" parent="1">
          <mxGeometry x="148" y="175" width="120" height="60" as="geometry" />
        </mxCell>
        <mxCell id="LgxNM3hIKTOUP9IM-5CU-13" value="" style="edgeStyle=none;curved=1;rounded=0;orthogonalLoop=1;jettySize=auto;html=1;fontSize=12;startSize=8;endSize=8;" edge="1" parent="1" source="LgxNM3hIKTOUP9IM-5CU-10" target="LgxNM3hIKTOUP9IM-5CU-12">
          <mxGeometry relative="1" as="geometry" />
        </mxCell>
        <mxCell id="LgxNM3hIKTOUP9IM-5CU-10" value="char cond[10]" style="whiteSpace=wrap;html=1;" vertex="1" parent="1">
          <mxGeometry x="148" y="278" width="120" height="60" as="geometry" />
        </mxCell>
        <mxCell id="LgxNM3hIKTOUP9IM-5CU-15" value="" style="edgeStyle=none;curved=1;rounded=0;orthogonalLoop=1;jettySize=auto;html=1;fontSize=12;startSize=8;endSize=8;" edge="1" parent="1" source="LgxNM3hIKTOUP9IM-5CU-12" target="LgxNM3hIKTOUP9IM-5CU-14">
          <mxGeometry relative="1" as="geometry" />
        </mxCell>
        <mxCell id="LgxNM3hIKTOUP9IM-5CU-12" value="inputting the condition" style="shape=parallelogram;perimeter=parallelogramPerimeter;whiteSpace=wrap;html=1;fixedSize=1;" vertex="1" parent="1">
          <mxGeometry x="148" y="381" width="120" height="60" as="geometry" />
        </mxCell>
        <mxCell id="LgxNM3hIKTOUP9IM-5CU-17" value="" style="edgeStyle=none;curved=1;rounded=0;orthogonalLoop=1;jettySize=auto;html=1;fontSize=12;startSize=8;endSize=8;" edge="1" parent="1" source="LgxNM3hIKTOUP9IM-5CU-14" target="LgxNM3hIKTOUP9IM-5CU-16">
          <mxGeometry relative="1" as="geometry" />
        </mxCell>
        <mxCell id="LgxNM3hIKTOUP9IM-5CU-14" value="WeatherCondition condition" style="whiteSpace=wrap;html=1;" vertex="1" parent="1">
          <mxGeometry x="148" y="484" width="120" height="60" as="geometry" />
        </mxCell>
        <mxCell id="LgxNM3hIKTOUP9IM-5CU-19" value="" style="edgeStyle=none;curved=1;rounded=0;orthogonalLoop=1;jettySize=auto;html=1;fontSize=12;startSize=8;endSize=8;" edge="1" parent="1" source="LgxNM3hIKTOUP9IM-5CU-16" target="LgxNM3hIKTOUP9IM-5CU-18">
          <mxGeometry relative="1" as="geometry" />
        </mxCell>
        <mxCell id="LgxNM3hIKTOUP9IM-5CU-22" value="true" style="edgeLabel;html=1;align=center;verticalAlign=middle;resizable=0;points=[];fontSize=12;" vertex="1" connectable="0" parent="LgxNM3hIKTOUP9IM-5CU-19">
          <mxGeometry x="-0.3826" y="4" relative="1" as="geometry">
            <mxPoint as="offset" />
          </mxGeometry>
        </mxCell>
        <mxCell id="LgxNM3hIKTOUP9IM-5CU-24" value="" style="edgeStyle=none;curved=1;rounded=0;orthogonalLoop=1;jettySize=auto;html=1;fontSize=12;startSize=8;endSize=8;" edge="1" parent="1" source="LgxNM3hIKTOUP9IM-5CU-16" target="LgxNM3hIKTOUP9IM-5CU-23">
          <mxGeometry relative="1" as="geometry" />
        </mxCell>
        <mxCell id="LgxNM3hIKTOUP9IM-5CU-16" value="if codition == INVALID" style="rhombus;whiteSpace=wrap;html=1;" vertex="1" parent="1">
          <mxGeometry x="-60" y="474" width="80" height="80" as="geometry" />
        </mxCell>
        <mxCell id="LgxNM3hIKTOUP9IM-5CU-21" style="edgeStyle=none;curved=1;rounded=0;orthogonalLoop=1;jettySize=auto;html=1;entryX=0.5;entryY=1;entryDx=0;entryDy=0;fontSize=12;startSize=8;endSize=8;" edge="1" parent="1" source="LgxNM3hIKTOUP9IM-5CU-18" target="LgxNM3hIKTOUP9IM-5CU-20">
          <mxGeometry relative="1" as="geometry" />
        </mxCell>
        <mxCell id="LgxNM3hIKTOUP9IM-5CU-18" value="&quot;Try to enter a valid condition&quot;" style="shape=parallelogram;perimeter=parallelogramPerimeter;whiteSpace=wrap;html=1;fixedSize=1;" vertex="1" parent="1">
          <mxGeometry x="-229" y="484" width="120" height="60" as="geometry" />
        </mxCell>
        <mxCell id="LgxNM3hIKTOUP9IM-5CU-20" value="return 1" style="ellipse;whiteSpace=wrap;html=1;" vertex="1" parent="1">
          <mxGeometry x="-229" y="361" width="120" height="80" as="geometry" />
        </mxCell>
        <mxCell id="LgxNM3hIKTOUP9IM-5CU-26" value="" style="edgeStyle=none;curved=1;rounded=0;orthogonalLoop=1;jettySize=auto;html=1;fontSize=12;startSize=8;endSize=8;" edge="1" parent="1" source="LgxNM3hIKTOUP9IM-5CU-23" target="LgxNM3hIKTOUP9IM-5CU-25">
          <mxGeometry relative="1" as="geometry" />
        </mxCell>
        <mxCell id="LgxNM3hIKTOUP9IM-5CU-27" value="true" style="edgeLabel;html=1;align=center;verticalAlign=middle;resizable=0;points=[];fontSize=12;" vertex="1" connectable="0" parent="LgxNM3hIKTOUP9IM-5CU-26">
          <mxGeometry x="-0.3391" relative="1" as="geometry">
            <mxPoint as="offset" />
          </mxGeometry>
        </mxCell>
        <mxCell id="LgxNM3hIKTOUP9IM-5CU-32" value="" style="edgeStyle=none;curved=1;rounded=0;orthogonalLoop=1;jettySize=auto;html=1;fontSize=12;startSize=8;endSize=8;" edge="1" parent="1" source="LgxNM3hIKTOUP9IM-5CU-23" target="LgxNM3hIKTOUP9IM-5CU-31">
          <mxGeometry relative="1" as="geometry" />
        </mxCell>
        <mxCell id="LgxNM3hIKTOUP9IM-5CU-23" value="if condition == RAINY or SNOWY" style="rhombus;whiteSpace=wrap;html=1;" vertex="1" parent="1">
          <mxGeometry x="-60" y="268" width="80" height="80" as="geometry" />
        </mxCell>
        <mxCell id="LgxNM3hIKTOUP9IM-5CU-25" value="&quot;You should be wearing a coat&quot;" style="shape=parallelogram;perimeter=parallelogramPerimeter;whiteSpace=wrap;html=1;fixedSize=1;" vertex="1" parent="1">
          <mxGeometry x="-229" y="278" width="120" height="60" as="geometry" />
        </mxCell>
        <mxCell id="LgxNM3hIKTOUP9IM-5CU-28" value="" style="endArrow=classic;html=1;rounded=0;fontSize=12;startSize=8;endSize=8;curved=1;entryX=1;entryY=0.5;entryDx=0;entryDy=0;" edge="1" parent="1" source="LgxNM3hIKTOUP9IM-5CU-23" target="LgxNM3hIKTOUP9IM-5CU-29">
          <mxGeometry width="50" height="50" relative="1" as="geometry">
            <mxPoint x="2" y="266" as="sourcePoint" />
            <mxPoint x="-38" y="219" as="targetPoint" />
          </mxGeometry>
        </mxCell>
        <mxCell id="LgxNM3hIKTOUP9IM-5CU-30" value="false" style="edgeLabel;html=1;align=center;verticalAlign=middle;resizable=0;points=[];fontSize=12;" vertex="1" connectable="0" parent="LgxNM3hIKTOUP9IM-5CU-28">
          <mxGeometry x="0.0367" y="-1" relative="1" as="geometry">
            <mxPoint as="offset" />
          </mxGeometry>
        </mxCell>
        <mxCell id="LgxNM3hIKTOUP9IM-5CU-29" value="&quot;There&#39;s no need in coat&quot;" style="shape=parallelogram;perimeter=parallelogramPerimeter;whiteSpace=wrap;html=1;fixedSize=1;" vertex="1" parent="1">
          <mxGeometry x="-229" y="175" width="120" height="60" as="geometry" />
        </mxCell>
        <mxCell id="LgxNM3hIKTOUP9IM-5CU-37" value="" style="edgeStyle=none;curved=1;rounded=0;orthogonalLoop=1;jettySize=auto;html=1;fontSize=12;startSize=8;endSize=8;" edge="1" parent="1" source="LgxNM3hIKTOUP9IM-5CU-31" target="LgxNM3hIKTOUP9IM-5CU-36">
          <mxGeometry relative="1" as="geometry" />
        </mxCell>
        <mxCell id="LgxNM3hIKTOUP9IM-5CU-38" value="true" style="edgeLabel;html=1;align=center;verticalAlign=middle;resizable=0;points=[];fontSize=12;" vertex="1" connectable="0" parent="LgxNM3hIKTOUP9IM-5CU-37">
          <mxGeometry x="0.0174" y="1" relative="1" as="geometry">
            <mxPoint as="offset" />
          </mxGeometry>
        </mxCell>
        <mxCell id="LgxNM3hIKTOUP9IM-5CU-48" value="" style="edgeStyle=none;curved=1;rounded=0;orthogonalLoop=1;jettySize=auto;html=1;fontSize=12;startSize=8;endSize=8;" edge="1" parent="1" source="LgxNM3hIKTOUP9IM-5CU-31" target="LgxNM3hIKTOUP9IM-5CU-47">
          <mxGeometry relative="1" as="geometry" />
        </mxCell>
        <mxCell id="LgxNM3hIKTOUP9IM-5CU-49" value="false" style="edgeLabel;html=1;align=center;verticalAlign=middle;resizable=0;points=[];fontSize=12;" vertex="1" connectable="0" parent="LgxNM3hIKTOUP9IM-5CU-48">
          <mxGeometry x="-0.1397" y="1" relative="1" as="geometry">
            <mxPoint as="offset" />
          </mxGeometry>
        </mxCell>
        <mxCell id="LgxNM3hIKTOUP9IM-5CU-54" style="edgeStyle=none;curved=1;rounded=0;orthogonalLoop=1;jettySize=auto;html=1;exitX=1;exitY=0.5;exitDx=0;exitDy=0;fontSize=12;startSize=8;endSize=8;" edge="1" parent="1" source="LgxNM3hIKTOUP9IM-5CU-31" target="LgxNM3hIKTOUP9IM-5CU-55">
          <mxGeometry relative="1" as="geometry">
            <mxPoint x="100.47827148437511" y="159.47826617697024" as="targetPoint" />
          </mxGeometry>
        </mxCell>
        <mxCell id="LgxNM3hIKTOUP9IM-5CU-56" value="false" style="edgeLabel;html=1;align=center;verticalAlign=middle;resizable=0;points=[];fontSize=12;" vertex="1" connectable="0" parent="LgxNM3hIKTOUP9IM-5CU-54">
          <mxGeometry x="-0.3545" y="-1" relative="1" as="geometry">
            <mxPoint as="offset" />
          </mxGeometry>
        </mxCell>
        <mxCell id="LgxNM3hIKTOUP9IM-5CU-60" style="edgeStyle=none;curved=1;rounded=0;orthogonalLoop=1;jettySize=auto;html=1;exitX=1;exitY=1;exitDx=0;exitDy=0;fontSize=12;startSize=8;endSize=8;" edge="1" parent="1" source="LgxNM3hIKTOUP9IM-5CU-31" target="LgxNM3hIKTOUP9IM-5CU-62">
          <mxGeometry relative="1" as="geometry">
            <mxPoint x="51.666659884982664" y="250.66668023003467" as="targetPoint" />
          </mxGeometry>
        </mxCell>
        <mxCell id="LgxNM3hIKTOUP9IM-5CU-61" value="false" style="edgeLabel;html=1;align=center;verticalAlign=middle;resizable=0;points=[];fontSize=12;" vertex="1" connectable="0" parent="LgxNM3hIKTOUP9IM-5CU-60">
          <mxGeometry x="-0.0263" y="-1" relative="1" as="geometry">
            <mxPoint as="offset" />
          </mxGeometry>
        </mxCell>
        <mxCell id="LgxNM3hIKTOUP9IM-5CU-31" value="if condition == SUNNY" style="rhombus;whiteSpace=wrap;html=1;" vertex="1" parent="1">
          <mxGeometry x="-60" y="105" width="80" height="80" as="geometry" />
        </mxCell>
        <mxCell id="LgxNM3hIKTOUP9IM-5CU-36" value="&quot;It&#39;s an amazing day for a picnic!&quot;" style="shape=parallelogram;perimeter=parallelogramPerimeter;whiteSpace=wrap;html=1;fixedSize=1;" vertex="1" parent="1">
          <mxGeometry x="-229" y="105" width="120" height="60" as="geometry" />
        </mxCell>
        <mxCell id="LgxNM3hIKTOUP9IM-5CU-39" value="" style="endArrow=classic;html=1;rounded=0;fontSize=12;startSize=8;endSize=8;curved=1;exitX=0;exitY=0;exitDx=0;exitDy=0;" edge="1" parent="1" source="LgxNM3hIKTOUP9IM-5CU-31">
          <mxGeometry width="50" height="50" relative="1" as="geometry">
            <mxPoint x="-23" y="100" as="sourcePoint" />
            <mxPoint x="-35" y="56" as="targetPoint" />
          </mxGeometry>
        </mxCell>
        <mxCell id="LgxNM3hIKTOUP9IM-5CU-40" value="false" style="edgeLabel;html=1;align=center;verticalAlign=middle;resizable=0;points=[];fontSize=12;" vertex="1" connectable="0" parent="LgxNM3hIKTOUP9IM-5CU-39">
          <mxGeometry x="-0.0408" relative="1" as="geometry">
            <mxPoint as="offset" />
          </mxGeometry>
        </mxCell>
        <mxCell id="LgxNM3hIKTOUP9IM-5CU-43" value="" style="edgeStyle=none;curved=1;rounded=0;orthogonalLoop=1;jettySize=auto;html=1;fontSize=12;startSize=8;endSize=8;" edge="1" parent="1" source="LgxNM3hIKTOUP9IM-5CU-41" target="LgxNM3hIKTOUP9IM-5CU-42">
          <mxGeometry relative="1" as="geometry" />
        </mxCell>
        <mxCell id="LgxNM3hIKTOUP9IM-5CU-44" value="true" style="edgeLabel;html=1;align=center;verticalAlign=middle;resizable=0;points=[];fontSize=12;" vertex="1" connectable="0" parent="LgxNM3hIKTOUP9IM-5CU-43">
          <mxGeometry x="-0.1003" relative="1" as="geometry">
            <mxPoint as="offset" />
          </mxGeometry>
        </mxCell>
        <mxCell id="LgxNM3hIKTOUP9IM-5CU-41" value="if condition == RAINY" style="rhombus;whiteSpace=wrap;html=1;" vertex="1" parent="1">
          <mxGeometry x="-97" y="-2" width="80" height="80" as="geometry" />
        </mxCell>
        <mxCell id="LgxNM3hIKTOUP9IM-5CU-42" value="&quot;How about reading a book&quot;" style="shape=parallelogram;perimeter=parallelogramPerimeter;whiteSpace=wrap;html=1;fixedSize=1;" vertex="1" parent="1">
          <mxGeometry x="-248" y="8" width="120" height="60" as="geometry" />
        </mxCell>
        <mxCell id="LgxNM3hIKTOUP9IM-5CU-51" style="edgeStyle=none;curved=1;rounded=0;orthogonalLoop=1;jettySize=auto;html=1;exitX=0;exitY=0;exitDx=0;exitDy=0;fontSize=12;startSize=8;endSize=8;entryX=1;entryY=0.5;entryDx=0;entryDy=0;" edge="1" parent="1" source="LgxNM3hIKTOUP9IM-5CU-47" target="LgxNM3hIKTOUP9IM-5CU-52">
          <mxGeometry relative="1" as="geometry">
            <mxPoint x="-42" y="-36" as="targetPoint" />
          </mxGeometry>
        </mxCell>
        <mxCell id="LgxNM3hIKTOUP9IM-5CU-53" value="true" style="edgeLabel;html=1;align=center;verticalAlign=middle;resizable=0;points=[];fontSize=12;" vertex="1" connectable="0" parent="LgxNM3hIKTOUP9IM-5CU-51">
          <mxGeometry x="-0.0208" y="2" relative="1" as="geometry">
            <mxPoint as="offset" />
          </mxGeometry>
        </mxCell>
        <mxCell id="LgxNM3hIKTOUP9IM-5CU-47" value="if condition == CLOUDY" style="rhombus;whiteSpace=wrap;html=1;" vertex="1" parent="1">
          <mxGeometry x="-2" y="-29" width="80" height="80" as="geometry" />
        </mxCell>
        <mxCell id="LgxNM3hIKTOUP9IM-5CU-52" value="&quot;Visiting a museum will be a great idea&quot;" style="shape=parallelogram;perimeter=parallelogramPerimeter;whiteSpace=wrap;html=1;fixedSize=1;" vertex="1" parent="1">
          <mxGeometry x="-229" y="-89" width="120" height="60" as="geometry" />
        </mxCell>
        <mxCell id="LgxNM3hIKTOUP9IM-5CU-58" value="" style="edgeStyle=none;curved=1;rounded=0;orthogonalLoop=1;jettySize=auto;html=1;fontSize=12;startSize=8;endSize=8;" edge="1" parent="1" source="LgxNM3hIKTOUP9IM-5CU-55" target="LgxNM3hIKTOUP9IM-5CU-57">
          <mxGeometry relative="1" as="geometry" />
        </mxCell>
        <mxCell id="LgxNM3hIKTOUP9IM-5CU-59" value="true" style="edgeLabel;html=1;align=center;verticalAlign=middle;resizable=0;points=[];fontSize=12;" vertex="1" connectable="0" parent="LgxNM3hIKTOUP9IM-5CU-58">
          <mxGeometry x="-0.29" relative="1" as="geometry">
            <mxPoint y="-1" as="offset" />
          </mxGeometry>
        </mxCell>
        <mxCell id="LgxNM3hIKTOUP9IM-5CU-55" value="if condition == SNOWY" style="rhombus;whiteSpace=wrap;html=1;" vertex="1" parent="1">
          <mxGeometry x="63.99827148437511" y="28.998266176970247" width="80" height="80" as="geometry" />
        </mxCell>
        <mxCell id="LgxNM3hIKTOUP9IM-5CU-57" value="&quot;Make a snowman &quot;" style="shape=parallelogram;perimeter=parallelogramPerimeter;whiteSpace=wrap;html=1;fixedSize=1;" vertex="1" parent="1">
          <mxGeometry x="44" y="145" width="120" height="60" as="geometry" />
        </mxCell>
        <mxCell id="LgxNM3hIKTOUP9IM-5CU-64" value="" style="edgeStyle=none;curved=1;rounded=0;orthogonalLoop=1;jettySize=auto;html=1;fontSize=12;startSize=8;endSize=8;" edge="1" parent="1" source="LgxNM3hIKTOUP9IM-5CU-62" target="LgxNM3hIKTOUP9IM-5CU-63">
          <mxGeometry relative="1" as="geometry" />
        </mxCell>
        <mxCell id="LgxNM3hIKTOUP9IM-5CU-65" value="true" style="edgeLabel;html=1;align=center;verticalAlign=middle;resizable=0;points=[];fontSize=12;" vertex="1" connectable="0" parent="LgxNM3hIKTOUP9IM-5CU-64">
          <mxGeometry x="-0.3887" y="2" relative="1" as="geometry">
            <mxPoint as="offset" />
          </mxGeometry>
        </mxCell>
        <mxCell id="LgxNM3hIKTOUP9IM-5CU-62" value="if condition == WINDY" style="rhombus;whiteSpace=wrap;html=1;" vertex="1" parent="1">
          <mxGeometry x="36.99665988498266" y="243.99668023003466" width="80" height="80" as="geometry" />
        </mxCell>
        <mxCell id="LgxNM3hIKTOUP9IM-5CU-63" value="&quot;Fly a kite&quot;" style="shape=parallelogram;perimeter=parallelogramPerimeter;whiteSpace=wrap;html=1;fixedSize=1;" vertex="1" parent="1">
          <mxGeometry x="17" y="364" width="120" height="60" as="geometry" />
        </mxCell>
      </root>
    </mxGraphModel>
  </diagram>
  <diagram id="S_R9ryk3znSde94RUHHi" name="int main2">
    <mxGraphModel dx="851" dy="952" grid="0" gridSize="10" guides="1" tooltips="1" connect="1" arrows="1" fold="1" page="0" pageScale="1" pageWidth="827" pageHeight="1169" math="0" shadow="0">
      <root>
        <mxCell id="0" />
        <mxCell id="1" parent="0" />
        <mxCell id="DrJaCnAZeiX6WNDmi2zU-3" value="" style="edgeStyle=none;curved=1;rounded=0;orthogonalLoop=1;jettySize=auto;html=1;fontSize=12;startSize=8;endSize=8;" edge="1" parent="1" source="DrJaCnAZeiX6WNDmi2zU-1" target="DrJaCnAZeiX6WNDmi2zU-2">
          <mxGeometry relative="1" as="geometry" />
        </mxCell>
        <mxCell id="DrJaCnAZeiX6WNDmi2zU-1" value="CONTINUE" style="ellipse;whiteSpace=wrap;html=1;" vertex="1" parent="1">
          <mxGeometry x="133" y="-64" width="120" height="80" as="geometry" />
        </mxCell>
        <mxCell id="DrJaCnAZeiX6WNDmi2zU-4" style="edgeStyle=none;curved=1;rounded=0;orthogonalLoop=1;jettySize=auto;html=1;exitX=0;exitY=0;exitDx=0;exitDy=0;fontSize=12;startSize=8;endSize=8;" edge="1" parent="1" source="DrJaCnAZeiX6WNDmi2zU-2">
          <mxGeometry relative="1" as="geometry">
            <mxPoint x="129.60000610351562" y="40.40000915527344" as="targetPoint" />
          </mxGeometry>
        </mxCell>
        <mxCell id="DrJaCnAZeiX6WNDmi2zU-6" value="SUNNY" style="edgeLabel;html=1;align=center;verticalAlign=middle;resizable=0;points=[];fontSize=12;" vertex="1" connectable="0" parent="DrJaCnAZeiX6WNDmi2zU-4">
          <mxGeometry x="-0.2103" y="-2" relative="1" as="geometry">
            <mxPoint as="offset" />
          </mxGeometry>
        </mxCell>
        <mxCell id="DrJaCnAZeiX6WNDmi2zU-7" value="" style="edgeStyle=none;curved=1;rounded=0;orthogonalLoop=1;jettySize=auto;html=1;fontSize=12;startSize=8;endSize=8;" edge="1" parent="1" source="DrJaCnAZeiX6WNDmi2zU-2">
          <mxGeometry relative="1" as="geometry">
            <mxPoint x="84" y="99" as="targetPoint" />
            <Array as="points" />
          </mxGeometry>
        </mxCell>
        <mxCell id="DrJaCnAZeiX6WNDmi2zU-8" value="RAINY" style="edgeLabel;html=1;align=center;verticalAlign=middle;resizable=0;points=[];fontSize=12;" vertex="1" connectable="0" parent="DrJaCnAZeiX6WNDmi2zU-7">
          <mxGeometry x="-0.1951" y="2" relative="1" as="geometry">
            <mxPoint as="offset" />
          </mxGeometry>
        </mxCell>
        <mxCell id="DrJaCnAZeiX6WNDmi2zU-10" style="edgeStyle=none;curved=1;rounded=0;orthogonalLoop=1;jettySize=auto;html=1;exitX=0;exitY=1;exitDx=0;exitDy=0;fontSize=12;startSize=8;endSize=8;" edge="1" parent="1" source="DrJaCnAZeiX6WNDmi2zU-2">
          <mxGeometry relative="1" as="geometry">
            <mxPoint x="106.0000187800481" y="166.38461068960328" as="targetPoint" />
          </mxGeometry>
        </mxCell>
        <mxCell id="DrJaCnAZeiX6WNDmi2zU-11" value="CLOUDY" style="edgeLabel;html=1;align=center;verticalAlign=middle;resizable=0;points=[];fontSize=12;" vertex="1" connectable="0" parent="DrJaCnAZeiX6WNDmi2zU-10">
          <mxGeometry x="-0.3131" relative="1" as="geometry">
            <mxPoint as="offset" />
          </mxGeometry>
        </mxCell>
        <mxCell id="DrJaCnAZeiX6WNDmi2zU-13" style="edgeStyle=none;curved=1;rounded=0;orthogonalLoop=1;jettySize=auto;html=1;exitX=1;exitY=0;exitDx=0;exitDy=0;fontSize=12;startSize=8;endSize=8;" edge="1" parent="1" source="DrJaCnAZeiX6WNDmi2zU-2">
          <mxGeometry relative="1" as="geometry">
            <mxPoint x="261.6923452524038" y="39.000025822566045" as="targetPoint" />
          </mxGeometry>
        </mxCell>
        <mxCell id="DrJaCnAZeiX6WNDmi2zU-14" value="SNOWY" style="edgeLabel;html=1;align=center;verticalAlign=middle;resizable=0;points=[];fontSize=12;" vertex="1" connectable="0" parent="DrJaCnAZeiX6WNDmi2zU-13">
          <mxGeometry x="-0.1249" y="3" relative="1" as="geometry">
            <mxPoint as="offset" />
          </mxGeometry>
        </mxCell>
        <mxCell id="DrJaCnAZeiX6WNDmi2zU-16" style="edgeStyle=none;curved=1;rounded=0;orthogonalLoop=1;jettySize=auto;html=1;exitX=1;exitY=1;exitDx=0;exitDy=0;fontSize=12;startSize=8;endSize=8;" edge="1" parent="1" source="DrJaCnAZeiX6WNDmi2zU-2">
          <mxGeometry relative="1" as="geometry">
            <mxPoint x="308" y="121" as="targetPoint" />
          </mxGeometry>
        </mxCell>
        <mxCell id="DrJaCnAZeiX6WNDmi2zU-17" value="WINDY" style="edgeLabel;html=1;align=center;verticalAlign=middle;resizable=0;points=[];fontSize=12;" vertex="1" connectable="0" parent="DrJaCnAZeiX6WNDmi2zU-16">
          <mxGeometry x="-0.0757" y="-2" relative="1" as="geometry">
            <mxPoint as="offset" />
          </mxGeometry>
        </mxCell>
        <mxCell id="DrJaCnAZeiX6WNDmi2zU-19" style="edgeStyle=none;curved=1;rounded=0;orthogonalLoop=1;jettySize=auto;html=1;exitX=0.5;exitY=1;exitDx=0;exitDy=0;fontSize=12;startSize=8;endSize=8;" edge="1" parent="1" source="DrJaCnAZeiX6WNDmi2zU-2">
          <mxGeometry relative="1" as="geometry">
            <mxPoint x="193.38461538461536" y="207.61538461538453" as="targetPoint" />
          </mxGeometry>
        </mxCell>
        <mxCell id="DrJaCnAZeiX6WNDmi2zU-2" value="switch (condition)" style="rhombus;whiteSpace=wrap;html=1;" vertex="1" parent="1">
          <mxGeometry x="153" y="57" width="80" height="80" as="geometry" />
        </mxCell>
        <mxCell id="DrJaCnAZeiX6WNDmi2zU-5" value="&quot;Wear your favourite sneakers&quot;" style="shape=parallelogram;perimeter=parallelogramPerimeter;whiteSpace=wrap;html=1;fixedSize=1;" vertex="1" parent="1">
          <mxGeometry x="20" y="8" width="120" height="60" as="geometry" />
        </mxCell>
        <mxCell id="DrJaCnAZeiX6WNDmi2zU-9" value="&quot;Rain boots are perfect for today&quot;" style="shape=parallelogram;perimeter=parallelogramPerimeter;whiteSpace=wrap;html=1;fixedSize=1;" vertex="1" parent="1">
          <mxGeometry x="-29" y="77" width="120" height="60" as="geometry" />
        </mxCell>
        <mxCell id="DrJaCnAZeiX6WNDmi2zU-12" value="&quot;Any shoes are suitable today&quot;" style="shape=parallelogram;perimeter=parallelogramPerimeter;whiteSpace=wrap;html=1;fixedSize=1;" vertex="1" parent="1">
          <mxGeometry x="-10" y="152" width="120" height="60" as="geometry" />
        </mxCell>
        <mxCell id="DrJaCnAZeiX6WNDmi2zU-15" value="&quot;Snow boots will keep your feet warm&quot;" style="shape=parallelogram;perimeter=parallelogramPerimeter;whiteSpace=wrap;html=1;fixedSize=1;" vertex="1" parent="1">
          <mxGeometry x="253" y="8" width="120" height="60" as="geometry" />
        </mxCell>
        <mxCell id="DrJaCnAZeiX6WNDmi2zU-18" value="&quot;Wear something durable&quot;" style="shape=parallelogram;perimeter=parallelogramPerimeter;whiteSpace=wrap;html=1;fixedSize=1;" vertex="1" parent="1">
          <mxGeometry x="298" y="92" width="120" height="60" as="geometry" />
        </mxCell>
        <mxCell id="DrJaCnAZeiX6WNDmi2zU-20" value="END" style="ellipse;whiteSpace=wrap;html=1;" vertex="1" parent="1">
          <mxGeometry x="133" y="209" width="120" height="80" as="geometry" />
        </mxCell>
      </root>
    </mxGraphModel>
  </diagram>
  <diagram id="dp-QSqKW5z5uThM8fK7A" name="getWeatherCondition ">
    <mxGraphModel dx="1227" dy="1412" grid="0" gridSize="10" guides="1" tooltips="1" connect="1" arrows="1" fold="1" page="0" pageScale="1" pageWidth="827" pageHeight="1169" math="0" shadow="0">
      <root>
        <mxCell id="0" />
        <mxCell id="1" parent="0" />
        <mxCell id="iaJz5_4KkN7xjyBh84xR-3" value="" style="edgeStyle=none;curved=1;rounded=0;orthogonalLoop=1;jettySize=auto;html=1;fontSize=12;startSize=8;endSize=8;" edge="1" parent="1" source="iaJz5_4KkN7xjyBh84xR-1" target="iaJz5_4KkN7xjyBh84xR-2">
          <mxGeometry relative="1" as="geometry" />
        </mxCell>
        <mxCell id="iaJz5_4KkN7xjyBh84xR-1" value="START" style="ellipse;whiteSpace=wrap;html=1;" vertex="1" parent="1">
          <mxGeometry x="123" y="-49" width="120" height="80" as="geometry" />
        </mxCell>
        <mxCell id="iaJz5_4KkN7xjyBh84xR-4" style="edgeStyle=none;curved=1;rounded=0;orthogonalLoop=1;jettySize=auto;html=1;exitX=1;exitY=0.5;exitDx=0;exitDy=0;fontSize=12;startSize=8;endSize=8;entryX=0;entryY=0.5;entryDx=0;entryDy=0;" edge="1" parent="1" source="iaJz5_4KkN7xjyBh84xR-2" target="iaJz5_4KkN7xjyBh84xR-5">
          <mxGeometry relative="1" as="geometry">
            <mxPoint x="278.4000244140625" y="136" as="targetPoint" />
          </mxGeometry>
        </mxCell>
        <mxCell id="iaJz5_4KkN7xjyBh84xR-14" value="true" style="edgeLabel;html=1;align=center;verticalAlign=middle;resizable=0;points=[];fontSize=12;" vertex="1" connectable="0" parent="iaJz5_4KkN7xjyBh84xR-4">
          <mxGeometry x="-0.1636" y="1" relative="1" as="geometry">
            <mxPoint as="offset" />
          </mxGeometry>
        </mxCell>
        <mxCell id="iaJz5_4KkN7xjyBh84xR-7" value="" style="edgeStyle=none;curved=1;rounded=0;orthogonalLoop=1;jettySize=auto;html=1;fontSize=12;startSize=8;endSize=8;" edge="1" parent="1" source="iaJz5_4KkN7xjyBh84xR-2" target="iaJz5_4KkN7xjyBh84xR-6">
          <mxGeometry relative="1" as="geometry" />
        </mxCell>
        <mxCell id="iaJz5_4KkN7xjyBh84xR-2" value="if strcmp(cond, &quot;sunny&quot;) == 0" style="rhombus;whiteSpace=wrap;html=1;" vertex="1" parent="1">
          <mxGeometry x="143" y="83" width="80" height="80" as="geometry" />
        </mxCell>
        <mxCell id="iaJz5_4KkN7xjyBh84xR-5" value="return SUNNY" style="ellipse;whiteSpace=wrap;html=1;" vertex="1" parent="1">
          <mxGeometry x="278" y="83" width="120" height="80" as="geometry" />
        </mxCell>
        <mxCell id="iaJz5_4KkN7xjyBh84xR-8" style="edgeStyle=none;curved=1;rounded=0;orthogonalLoop=1;jettySize=auto;html=1;exitX=1;exitY=0.5;exitDx=0;exitDy=0;fontSize=12;startSize=8;endSize=8;entryX=0;entryY=0.5;entryDx=0;entryDy=0;" edge="1" parent="1" source="iaJz5_4KkN7xjyBh84xR-6" target="iaJz5_4KkN7xjyBh84xR-9">
          <mxGeometry relative="1" as="geometry">
            <mxPoint x="275.20001220703125" y="254" as="targetPoint" />
          </mxGeometry>
        </mxCell>
        <mxCell id="iaJz5_4KkN7xjyBh84xR-15" value="true" style="edgeLabel;html=1;align=center;verticalAlign=middle;resizable=0;points=[];fontSize=12;" vertex="1" connectable="0" parent="iaJz5_4KkN7xjyBh84xR-8">
          <mxGeometry x="-0.2" y="-3" relative="1" as="geometry">
            <mxPoint as="offset" />
          </mxGeometry>
        </mxCell>
        <mxCell id="iaJz5_4KkN7xjyBh84xR-11" value="" style="edgeStyle=none;curved=1;rounded=0;orthogonalLoop=1;jettySize=auto;html=1;fontSize=12;startSize=8;endSize=8;" edge="1" parent="1" source="iaJz5_4KkN7xjyBh84xR-6" target="iaJz5_4KkN7xjyBh84xR-10">
          <mxGeometry relative="1" as="geometry" />
        </mxCell>
        <mxCell id="iaJz5_4KkN7xjyBh84xR-6" value="if strcmp(cond, &quot;rainy&quot;) == 0" style="rhombus;whiteSpace=wrap;html=1;" vertex="1" parent="1">
          <mxGeometry x="143" y="214" width="80" height="80" as="geometry" />
        </mxCell>
        <mxCell id="iaJz5_4KkN7xjyBh84xR-9" value="return RAINY" style="ellipse;whiteSpace=wrap;html=1;" vertex="1" parent="1">
          <mxGeometry x="278" y="214" width="120" height="80" as="geometry" />
        </mxCell>
        <mxCell id="iaJz5_4KkN7xjyBh84xR-12" style="edgeStyle=none;curved=1;rounded=0;orthogonalLoop=1;jettySize=auto;html=1;exitX=1;exitY=0.5;exitDx=0;exitDy=0;fontSize=12;startSize=8;endSize=8;" edge="1" parent="1" source="iaJz5_4KkN7xjyBh84xR-10">
          <mxGeometry relative="1" as="geometry">
            <mxPoint x="278.4000244140625" y="385" as="targetPoint" />
          </mxGeometry>
        </mxCell>
        <mxCell id="iaJz5_4KkN7xjyBh84xR-16" value="true" style="edgeLabel;html=1;align=center;verticalAlign=middle;resizable=0;points=[];fontSize=12;" vertex="1" connectable="0" parent="iaJz5_4KkN7xjyBh84xR-12">
          <mxGeometry x="-0.2553" y="3" relative="1" as="geometry">
            <mxPoint as="offset" />
          </mxGeometry>
        </mxCell>
        <mxCell id="iaJz5_4KkN7xjyBh84xR-18" value="" style="edgeStyle=none;curved=1;rounded=0;orthogonalLoop=1;jettySize=auto;html=1;fontSize=12;startSize=8;endSize=8;" edge="1" parent="1" source="iaJz5_4KkN7xjyBh84xR-10" target="iaJz5_4KkN7xjyBh84xR-17">
          <mxGeometry relative="1" as="geometry" />
        </mxCell>
        <mxCell id="iaJz5_4KkN7xjyBh84xR-10" value="&lt;br&gt;&lt;span style=&quot;color: rgb(0, 0, 0); font-family: Helvetica; font-size: 12px; font-style: normal; font-variant-ligatures: normal; font-variant-caps: normal; font-weight: 400; letter-spacing: normal; orphans: 2; text-align: center; text-indent: 0px; text-transform: none; widows: 2; word-spacing: 0px; -webkit-text-stroke-width: 0px; white-space: normal; background-color: rgb(255, 255, 255); text-decoration-thickness: initial; text-decoration-style: initial; text-decoration-color: initial; display: inline !important; float: none;&quot;&gt;if strcmp(cond, &quot;windy&quot;) == 0&lt;/span&gt;&lt;div&gt;&lt;br/&gt;&lt;/div&gt;" style="rhombus;whiteSpace=wrap;html=1;" vertex="1" parent="1">
          <mxGeometry x="142" y="345" width="80" height="80" as="geometry" />
        </mxCell>
        <mxCell id="iaJz5_4KkN7xjyBh84xR-13" value="return WINDY" style="ellipse;whiteSpace=wrap;html=1;" vertex="1" parent="1">
          <mxGeometry x="278" y="345" width="120" height="80" as="geometry" />
        </mxCell>
        <mxCell id="iaJz5_4KkN7xjyBh84xR-19" style="edgeStyle=none;curved=1;rounded=0;orthogonalLoop=1;jettySize=auto;html=1;exitX=1;exitY=0.5;exitDx=0;exitDy=0;fontSize=12;startSize=8;endSize=8;" edge="1" parent="1" source="iaJz5_4KkN7xjyBh84xR-17">
          <mxGeometry relative="1" as="geometry">
            <mxPoint x="278" y="516" as="targetPoint" />
          </mxGeometry>
        </mxCell>
        <mxCell id="iaJz5_4KkN7xjyBh84xR-25" value="true" style="edgeLabel;html=1;align=center;verticalAlign=middle;resizable=0;points=[];fontSize=12;" vertex="1" connectable="0" parent="iaJz5_4KkN7xjyBh84xR-19">
          <mxGeometry x="-0.2193" y="3" relative="1" as="geometry">
            <mxPoint as="offset" />
          </mxGeometry>
        </mxCell>
        <mxCell id="iaJz5_4KkN7xjyBh84xR-23" value="" style="edgeStyle=none;curved=1;rounded=0;orthogonalLoop=1;jettySize=auto;html=1;fontSize=12;startSize=8;endSize=8;" edge="1" parent="1" source="iaJz5_4KkN7xjyBh84xR-17" target="iaJz5_4KkN7xjyBh84xR-22">
          <mxGeometry relative="1" as="geometry" />
        </mxCell>
        <mxCell id="iaJz5_4KkN7xjyBh84xR-17" value="if strcmp(cond, &quot;cloudy&quot;) == 0" style="rhombus;whiteSpace=wrap;html=1;" vertex="1" parent="1">
          <mxGeometry x="143" y="476" width="80" height="80" as="geometry" />
        </mxCell>
        <mxCell id="iaJz5_4KkN7xjyBh84xR-20" value="return CLOUDY" style="ellipse;whiteSpace=wrap;html=1;" vertex="1" parent="1">
          <mxGeometry x="278" y="476" width="120" height="80" as="geometry" />
        </mxCell>
        <mxCell id="iaJz5_4KkN7xjyBh84xR-21" style="edgeStyle=none;curved=1;rounded=0;orthogonalLoop=1;jettySize=auto;html=1;exitX=0;exitY=0.5;exitDx=0;exitDy=0;fontSize=12;startSize=8;endSize=8;" edge="1" parent="1" source="iaJz5_4KkN7xjyBh84xR-20" target="iaJz5_4KkN7xjyBh84xR-20">
          <mxGeometry relative="1" as="geometry" />
        </mxCell>
        <mxCell id="iaJz5_4KkN7xjyBh84xR-24" style="edgeStyle=none;curved=1;rounded=0;orthogonalLoop=1;jettySize=auto;html=1;exitX=0;exitY=0.5;exitDx=0;exitDy=0;fontSize=12;startSize=8;endSize=8;" edge="1" parent="1" source="iaJz5_4KkN7xjyBh84xR-22">
          <mxGeometry relative="1" as="geometry">
            <mxPoint x="-42.823493508731644" y="516.5882352941178" as="targetPoint" />
          </mxGeometry>
        </mxCell>
        <mxCell id="iaJz5_4KkN7xjyBh84xR-26" value="true" style="edgeLabel;html=1;align=center;verticalAlign=middle;resizable=0;points=[];fontSize=12;" vertex="1" connectable="0" parent="iaJz5_4KkN7xjyBh84xR-24">
          <mxGeometry x="-0.2581" y="2" relative="1" as="geometry">
            <mxPoint as="offset" />
          </mxGeometry>
        </mxCell>
        <mxCell id="iaJz5_4KkN7xjyBh84xR-28" style="edgeStyle=none;curved=1;rounded=0;orthogonalLoop=1;jettySize=auto;html=1;exitX=0.5;exitY=0;exitDx=0;exitDy=0;fontSize=12;startSize=8;endSize=8;" edge="1" parent="1" source="iaJz5_4KkN7xjyBh84xR-22">
          <mxGeometry relative="1" as="geometry">
            <mxPoint x="47.799999999999955" y="423.5999755859375" as="targetPoint" />
          </mxGeometry>
        </mxCell>
        <mxCell id="iaJz5_4KkN7xjyBh84xR-22" value="if strcmp(cond, &quot;snowy&quot;) == 0" style="rhombus;whiteSpace=wrap;html=1;" vertex="1" parent="1">
          <mxGeometry x="8" y="476" width="80" height="80" as="geometry" />
        </mxCell>
        <mxCell id="iaJz5_4KkN7xjyBh84xR-27" value="return SNOWY" style="ellipse;whiteSpace=wrap;html=1;" vertex="1" parent="1">
          <mxGeometry x="-162" y="476" width="120" height="80" as="geometry" />
        </mxCell>
        <mxCell id="iaJz5_4KkN7xjyBh84xR-29" value="return INVALID" style="ellipse;whiteSpace=wrap;html=1;" vertex="1" parent="1">
          <mxGeometry x="-12" y="345" width="120" height="80" as="geometry" />
        </mxCell>
      </root>
    </mxGraphModel>
  </diagram>
</mxfile>
